<mxfile host="app.diagrams.net" agent="Mozilla/5.0 (Windows NT 10.0; Win64; x64) AppleWebKit/537.36 (KHTML, like Gecko) Chrome/130.0.0.0 Safari/537.36 Edg/130.0.0.0" version="24.8.1">
  <diagram name="第 1 页" id="GMiWsGWZZkpvIEyWIjcT">
    <mxGraphModel dx="1042" dy="627" grid="1" gridSize="10" guides="1" tooltips="1" connect="1" arrows="1" fold="1" page="1" pageScale="1" pageWidth="827" pageHeight="1169" math="0" shadow="0">
      <root>
        <mxCell id="0" />
        <mxCell id="1" parent="0" />
        <mxCell id="hNwP6rlEQ14kVNNIEeBF-6" style="edgeStyle=orthogonalEdgeStyle;rounded=0;orthogonalLoop=1;jettySize=auto;html=1;exitX=1;exitY=0.5;exitDx=0;exitDy=0;" edge="1" parent="1" source="hNwP6rlEQ14kVNNIEeBF-1" target="hNwP6rlEQ14kVNNIEeBF-4">
          <mxGeometry relative="1" as="geometry" />
        </mxCell>
        <mxCell id="hNwP6rlEQ14kVNNIEeBF-22" style="edgeStyle=orthogonalEdgeStyle;rounded=0;orthogonalLoop=1;jettySize=auto;html=1;exitX=0.5;exitY=1;exitDx=0;exitDy=0;entryX=0.5;entryY=0;entryDx=0;entryDy=0;" edge="1" parent="1" source="hNwP6rlEQ14kVNNIEeBF-1" target="hNwP6rlEQ14kVNNIEeBF-21">
          <mxGeometry relative="1" as="geometry" />
        </mxCell>
        <mxCell id="hNwP6rlEQ14kVNNIEeBF-28" style="edgeStyle=orthogonalEdgeStyle;rounded=0;orthogonalLoop=1;jettySize=auto;html=1;exitX=0;exitY=0.75;exitDx=0;exitDy=0;entryX=1;entryY=0.5;entryDx=0;entryDy=0;" edge="1" parent="1" source="hNwP6rlEQ14kVNNIEeBF-1" target="hNwP6rlEQ14kVNNIEeBF-26">
          <mxGeometry relative="1" as="geometry" />
        </mxCell>
        <mxCell id="hNwP6rlEQ14kVNNIEeBF-29" style="edgeStyle=orthogonalEdgeStyle;rounded=0;orthogonalLoop=1;jettySize=auto;html=1;exitX=0;exitY=0.5;exitDx=0;exitDy=0;" edge="1" parent="1" source="hNwP6rlEQ14kVNNIEeBF-1" target="hNwP6rlEQ14kVNNIEeBF-25">
          <mxGeometry relative="1" as="geometry" />
        </mxCell>
        <mxCell id="hNwP6rlEQ14kVNNIEeBF-1" value="正常(Normal&lt;span style=&quot;background-color: initial;&quot;&gt;)&lt;/span&gt;" style="rounded=0;whiteSpace=wrap;html=1;" vertex="1" parent="1">
          <mxGeometry x="460" y="390" width="120" height="60" as="geometry" />
        </mxCell>
        <mxCell id="hNwP6rlEQ14kVNNIEeBF-3" style="edgeStyle=orthogonalEdgeStyle;rounded=0;orthogonalLoop=1;jettySize=auto;html=1;exitX=0.5;exitY=1;exitDx=0;exitDy=0;entryX=0.5;entryY=0;entryDx=0;entryDy=0;" edge="1" parent="1" source="hNwP6rlEQ14kVNNIEeBF-2" target="hNwP6rlEQ14kVNNIEeBF-1">
          <mxGeometry relative="1" as="geometry" />
        </mxCell>
        <mxCell id="hNwP6rlEQ14kVNNIEeBF-5" style="edgeStyle=orthogonalEdgeStyle;rounded=0;orthogonalLoop=1;jettySize=auto;html=1;exitX=1;exitY=0.5;exitDx=0;exitDy=0;entryX=0.5;entryY=0;entryDx=0;entryDy=0;" edge="1" parent="1" source="hNwP6rlEQ14kVNNIEeBF-2" target="hNwP6rlEQ14kVNNIEeBF-4">
          <mxGeometry relative="1" as="geometry" />
        </mxCell>
        <mxCell id="hNwP6rlEQ14kVNNIEeBF-8" style="edgeStyle=orthogonalEdgeStyle;rounded=0;orthogonalLoop=1;jettySize=auto;html=1;exitX=0.5;exitY=0;exitDx=0;exitDy=0;entryX=0.5;entryY=1;entryDx=0;entryDy=0;" edge="1" parent="1" source="hNwP6rlEQ14kVNNIEeBF-2" target="hNwP6rlEQ14kVNNIEeBF-7">
          <mxGeometry relative="1" as="geometry" />
        </mxCell>
        <mxCell id="hNwP6rlEQ14kVNNIEeBF-19" style="edgeStyle=orthogonalEdgeStyle;rounded=0;orthogonalLoop=1;jettySize=auto;html=1;exitX=0.25;exitY=0;exitDx=0;exitDy=0;entryX=0.75;entryY=1;entryDx=0;entryDy=0;" edge="1" parent="1" source="hNwP6rlEQ14kVNNIEeBF-2" target="hNwP6rlEQ14kVNNIEeBF-11">
          <mxGeometry relative="1" as="geometry" />
        </mxCell>
        <mxCell id="hNwP6rlEQ14kVNNIEeBF-31" style="edgeStyle=orthogonalEdgeStyle;rounded=0;orthogonalLoop=1;jettySize=auto;html=1;exitX=0;exitY=0.75;exitDx=0;exitDy=0;entryX=0;entryY=0.5;entryDx=0;entryDy=0;" edge="1" parent="1" source="hNwP6rlEQ14kVNNIEeBF-2" target="hNwP6rlEQ14kVNNIEeBF-26">
          <mxGeometry relative="1" as="geometry" />
        </mxCell>
        <mxCell id="hNwP6rlEQ14kVNNIEeBF-32" style="edgeStyle=orthogonalEdgeStyle;rounded=0;orthogonalLoop=1;jettySize=auto;html=1;exitX=0.25;exitY=1;exitDx=0;exitDy=0;entryX=0.25;entryY=0;entryDx=0;entryDy=0;" edge="1" parent="1" source="hNwP6rlEQ14kVNNIEeBF-2" target="hNwP6rlEQ14kVNNIEeBF-25">
          <mxGeometry relative="1" as="geometry" />
        </mxCell>
        <mxCell id="hNwP6rlEQ14kVNNIEeBF-2" value="加载中(PlayerLoading)" style="rounded=0;whiteSpace=wrap;html=1;" vertex="1" parent="1">
          <mxGeometry x="280" y="240" width="120" height="60" as="geometry" />
        </mxCell>
        <mxCell id="hNwP6rlEQ14kVNNIEeBF-4" value="网络错误&lt;div&gt;(NetworkError)&lt;/div&gt;" style="rounded=0;whiteSpace=wrap;html=1;" vertex="1" parent="1">
          <mxGeometry x="640" y="390" width="120" height="60" as="geometry" />
        </mxCell>
        <mxCell id="hNwP6rlEQ14kVNNIEeBF-13" style="edgeStyle=orthogonalEdgeStyle;rounded=0;orthogonalLoop=1;jettySize=auto;html=1;exitX=1;exitY=0.5;exitDx=0;exitDy=0;entryX=0.75;entryY=0;entryDx=0;entryDy=0;" edge="1" parent="1" source="hNwP6rlEQ14kVNNIEeBF-7" target="hNwP6rlEQ14kVNNIEeBF-4">
          <mxGeometry relative="1" as="geometry" />
        </mxCell>
        <mxCell id="hNwP6rlEQ14kVNNIEeBF-34" style="edgeStyle=orthogonalEdgeStyle;rounded=0;orthogonalLoop=1;jettySize=auto;html=1;exitX=0.75;exitY=1;exitDx=0;exitDy=0;entryX=0.75;entryY=0;entryDx=0;entryDy=0;" edge="1" parent="1" source="hNwP6rlEQ14kVNNIEeBF-7" target="hNwP6rlEQ14kVNNIEeBF-2">
          <mxGeometry relative="1" as="geometry" />
        </mxCell>
        <mxCell id="hNwP6rlEQ14kVNNIEeBF-7" value="加载20s后超时&lt;div&gt;(L&lt;span style=&quot;background-color: initial;&quot;&gt;oadingTimeOut)&lt;/span&gt;&lt;/div&gt;" style="rounded=0;whiteSpace=wrap;html=1;" vertex="1" parent="1">
          <mxGeometry x="280" y="130" width="120" height="60" as="geometry" />
        </mxCell>
        <mxCell id="hNwP6rlEQ14kVNNIEeBF-11" value="特殊状态、锁网等&lt;div&gt;（SpecialStatus）&lt;/div&gt;" style="rounded=0;whiteSpace=wrap;html=1;" vertex="1" parent="1">
          <mxGeometry x="40" y="140" width="120" height="60" as="geometry" />
        </mxCell>
        <mxCell id="hNwP6rlEQ14kVNNIEeBF-16" style="edgeStyle=orthogonalEdgeStyle;rounded=0;orthogonalLoop=1;jettySize=auto;html=1;exitX=1;exitY=0.5;exitDx=0;exitDy=0;entryX=0;entryY=0.5;entryDx=0;entryDy=0;" edge="1" parent="1" source="hNwP6rlEQ14kVNNIEeBF-15" target="hNwP6rlEQ14kVNNIEeBF-2">
          <mxGeometry relative="1" as="geometry" />
        </mxCell>
        <mxCell id="hNwP6rlEQ14kVNNIEeBF-20" style="edgeStyle=orthogonalEdgeStyle;rounded=0;orthogonalLoop=1;jettySize=auto;html=1;exitX=0.5;exitY=0;exitDx=0;exitDy=0;entryX=0.5;entryY=1;entryDx=0;entryDy=0;" edge="1" parent="1" source="hNwP6rlEQ14kVNNIEeBF-15" target="hNwP6rlEQ14kVNNIEeBF-11">
          <mxGeometry relative="1" as="geometry" />
        </mxCell>
        <mxCell id="hNwP6rlEQ14kVNNIEeBF-24" style="edgeStyle=orthogonalEdgeStyle;rounded=0;orthogonalLoop=1;jettySize=auto;html=1;exitX=0.5;exitY=1;exitDx=0;exitDy=0;entryX=0.5;entryY=0;entryDx=0;entryDy=0;" edge="1" parent="1" source="hNwP6rlEQ14kVNNIEeBF-15" target="hNwP6rlEQ14kVNNIEeBF-23">
          <mxGeometry relative="1" as="geometry" />
        </mxCell>
        <mxCell id="hNwP6rlEQ14kVNNIEeBF-15" value="进入页面" style="rounded=1;whiteSpace=wrap;html=1;" vertex="1" parent="1">
          <mxGeometry x="40" y="240" width="120" height="60" as="geometry" />
        </mxCell>
        <mxCell id="hNwP6rlEQ14kVNNIEeBF-21" value="固话对讲&lt;div&gt;(GuhuaTalkBack)&lt;/div&gt;" style="rounded=0;whiteSpace=wrap;html=1;" vertex="1" parent="1">
          <mxGeometry x="460" y="510" width="120" height="60" as="geometry" />
        </mxCell>
        <mxCell id="hNwP6rlEQ14kVNNIEeBF-23" value="流量提醒&lt;div&gt;(FlowRemind)&lt;/div&gt;" style="rounded=0;whiteSpace=wrap;html=1;" vertex="1" parent="1">
          <mxGeometry x="40" y="390" width="120" height="60" as="geometry" />
        </mxCell>
        <mxCell id="hNwP6rlEQ14kVNNIEeBF-25" value="休眠&lt;br&gt;&lt;div&gt;(Dormant)&lt;/div&gt;" style="rounded=0;whiteSpace=wrap;html=1;" vertex="1" parent="1">
          <mxGeometry x="280" y="390" width="120" height="60" as="geometry" />
        </mxCell>
        <mxCell id="hNwP6rlEQ14kVNNIEeBF-26" value="离线&lt;br&gt;&lt;div&gt;(Offline)&lt;/div&gt;" style="rounded=0;whiteSpace=wrap;html=1;" vertex="1" parent="1">
          <mxGeometry x="280" y="510" width="120" height="60" as="geometry" />
        </mxCell>
      </root>
    </mxGraphModel>
  </diagram>
</mxfile>
